<?xml version="1.0" encoding="iso-8859-1"?>
<!-- Uploaded to: SVG Repo, www.svgrepo.com, Generator: SVG Repo Mixer Tools -->
<!DOCTYPE svg PUBLIC "-//W3C//DTD SVG 1.1//EN" "http://www.w3.org/Graphics/SVG/1.1/DTD/svg11.dtd">
<svg fill="#000000" version="1.1" id="Capa_1" xmlns="http://www.w3.org/2000/svg" xmlns:xlink="http://www.w3.org/1999/xlink" 
	 width="800px" height="800px" viewBox="0 0 231.016 231.017"
	 xml:space="preserve">
<g>
	<g>
		<path d="M139.082,74.864c10.797,11.642,17.877,31.021,17.877,53.004c0,35.61-82.905,35.61-82.905,0
			c0-21.983,7.079-41.371,17.881-53.004c-13.026,10.94-21.754,30.575-21.754,53.004c0,34.279,20.332,62.184,45.328,62.184
			c25,0,45.317-27.904,45.317-62.184C160.826,105.438,152.106,85.804,139.082,74.864z"/>
		<path d="M147.746,113.039c0-24.405-14.442-44.196-32.237-44.196c-17.805,0-32.24,19.791-32.24,44.196
			C83.269,137.438,147.746,137.438,147.746,113.039z"/>
		<path d="M13.163,184.729c0.793,4.38,4.434,7.746,9.026,7.746c4.597,0,8.246-3.374,9.031-7.746
			c-2.89,0.477-5.961,0.705-9.031,0.705C19.131,185.443,16.06,185.206,13.163,184.729z"/>
		<path d="M199.787,184.729c0.797,4.38,4.428,7.746,9.028,7.746c4.585,0,8.235-3.374,9.024-7.746
			c-2.889,0.477-5.971,0.705-9.024,0.705C205.75,185.443,202.684,185.206,199.787,184.729z"/>
		<path d="M210.642,151.933c-1.955-18.767-12.162-33.86-25.562-38.495c-5.735-27.788-27.644-49.666-55.495-55.263
			c1.899-1.939,3.029-4.273,3.029-6.809c0-3.304-8.464-4.959-16.979-4.979c3.932-0.062,7.081-3.232,7.081-7.171
			c0-3.976-3.229-7.199-7.207-7.199c-3.979,0-7.199,3.224-7.199,7.199c0,3.939,3.156,7.109,7.073,7.171
			c-8.502,0.02-16.974,1.675-16.974,4.979c0,2.527,1.124,4.869,3.023,6.809C73.588,63.763,51.67,85.65,45.933,113.438
			c-13.409,4.626-23.602,19.729-25.557,38.495C8.989,152.862,0,162.3,0,173.953c0,12.259,44.398,12.259,44.398,0
			c0-11.316-8.494-20.554-19.438-21.928c1.713-15.653,9.596-28.357,20.091-33.25c-0.385,2.993-0.653,6.02-0.653,9.117
			c0,39.276,31.835,71.107,71.11,71.107c39.274,0,71.122-31.831,71.122-71.107c0-3.098-0.277-6.12-0.662-9.117
			c10.504,4.901,18.387,17.604,20.094,33.25c-10.937,1.374-19.432,10.611-19.432,21.928c0,12.259,44.386,12.259,44.386,0
			C231.016,162.3,222.015,152.854,210.642,151.933z M115.508,194.668c-27.94,0-50.668-29.964-50.668-66.792
			s22.728-66.784,50.668-66.784c27.945,0,50.668,29.956,50.668,66.784S143.454,194.668,115.508,194.668z"/>
		<path d="M115.508,138.624c5.452,0,9.876,1.29,9.876,2.886c0,1.587-4.424,2.881-9.876,2.881c-5.454,0-9.875-1.294-9.875-2.881
			C105.634,139.914,110.054,138.624,115.508,138.624z"/>
	</g>
</g>
</svg>